<?xml version="1.0" encoding="UTF-8" standalone="no"?>
<svg
   viewBox="0 0 90 90"
   version="1.1"
   x="0px"
   y="0px"
   id="logo"
   sodipodi:docname="parcel.svg"
   width="90"
   height="90"
   inkscape:version="1.1 (c4e8f9e, 2021-05-24)"
   xmlns:inkscape="http://www.inkscape.org/namespaces/inkscape"
   xmlns:sodipodi="http://sodipodi.sourceforge.net/DTD/sodipodi-0.dtd"
   xmlns="http://www.w3.org/2000/svg"
   xmlns:svg="http://www.w3.org/2000/svg"
   xmlns:rdf="http://www.w3.org/1999/02/22-rdf-syntax-ns#"
   xmlns:cc="http://creativecommons.org/ns#"
   xmlns:dc="http://purl.org/dc/elements/1.1/">
  <defs
     id="defs838" />
  <sodipodi:namedview
     id="namedview836"
     pagecolor="#ffffff"
     bordercolor="#666666"
     borderopacity="1.0"
     inkscape:pageshadow="2"
     inkscape:pageopacity="0.0"
     inkscape:pagecheckerboard="0"
     showgrid="false"
     inkscape:zoom="4.6666667"
     inkscape:cx="45"
     inkscape:cy="56.25"
     inkscape:window-width="1280"
     inkscape:window-height="747"
     inkscape:window-x="0"
     inkscape:window-y="25"
     inkscape:window-maximized="0"
     inkscape:current-layer="svg834" />
  
  <g
     stroke="none"
     stroke-width="1"
     fill="none"
  
     id="g828">
    <path
       d="m 84.323181,39.711788 -9.565708,-5.188945 9.565708,-5.098703 c 0.36097,-0.180485 0.631698,-0.586576 0.631698,-1.037789 0,-0.406092 -0.225607,-0.812183 -0.631698,-1.037789 L 56.979695,13.135364 c -0.36097,-0.180485 -0.767061,-0.180485 -1.08291,0 L 44.977439,19.046249 34.058094,13.135364 c -0.360971,-0.180485 -0.767062,-0.180485 -1.082911,0 L 5.6316977,27.348562 C 5.2707276,27.529047 5,27.935138 5,28.386351 c 0,0.451213 0.2256063,0.812183 0.6316977,1.037789 l 9.5657083,5.098703 -9.5657083,5.188945 c -0.3609701,0.225606 -0.5865764,0.586576 -0.5865764,1.037789 0,0.451213 0.2256063,0.812183 0.6316977,1.037789 l 10.829103,5.7304 v 14.348562 c 0,0.406092 0.225606,0.812183 0.631698,1.037789 l 27.343485,14.483926 c 0.04512,0.04512 0.09024,0.04512 0.135364,0.04512 0.04512,0 0.09024,0.04512 0.135364,0.04512 0.09024,0.04512 0.180485,0.04512 0.270728,0.04512 0.09024,0 0.180485,0 0.315848,-0.04512 0,0 0.04512,0 0.04512,-0.04512 0.04512,0 0.135364,-0.04512 0.180485,-0.09024 L 72.907501,62.858996 c 0.360971,-0.180485 0.631698,-0.586576 0.631698,-1.037789 V 47.472645 l 10.829103,-5.7304 C 84.729272,41.56176 85,41.155668 85,40.704456 85,40.253243 84.729272,39.937394 84.323181,39.711788 Z M 45.022561,47.698252 20.205866,34.522843 45.022561,21.708404 69.839255,34.522843 Z m 11.4608,-32.171461 24.816695,12.904681 -8.979131,4.782854 -14.30344,-7.399887 -10.558376,-5.459673 z m -22.966723,0 8.979132,4.873096 -23.869149,12.318105 -0.992667,0.496334 -8.9791317,-4.782854 z M 17.679075,35.831359 42.540891,49.006768 33.516638,53.879865 18.22053,45.758037 c 0,0 0,0 0,0 L 8.6999436,40.704456 Z m 1.128032,25.313029 V 48.736041 l 14.168076,7.535251 c 0.09024,0.04512 0.180485,0.09024 0.270728,0.09024 0.09024,0 0.180485,0.04512 0.270727,0.04512 0.180485,0 0.360971,-0.04512 0.541456,-0.135363 l 9.746193,-5.279188 V 74.455161 L 18.807107,61.144388 Z m 52.385786,0 -24.99718,13.265651 V 50.946982 l 9.746193,5.279188 c 0.180485,0.09024 0.360971,0.135364 0.541455,0.135364 0.135364,0 0.225607,0 0.315849,-0.04512 0.09024,0 0.135364,-0.04512 0.225607,-0.09024 L 71.192893,48.736041 V 61.144388 Z M 56.483361,53.924986 47.459109,49.05189 72.320925,35.87648 l 9.024253,4.873097 z"
       fill="white"
      
       id="path826" />
  </g>
  
  <metadata
     id="metadata920">
    <rdf:RDF>
      <cc:Work
         rdf:about="">
        <dc:title>13 copy 4</dc:title>
      </cc:Work>
    </rdf:RDF>
  </metadata>
</svg>
