<?xml version="1.0" encoding="iso-8859-1"?>
<!-- Generator: Adobe Illustrator 18.0.0, SVG Export Plug-In . SVG Version: 6.00 Build 0)  -->
<!DOCTYPE svg PUBLIC "-//W3C//DTD SVG 1.1//EN" "http://www.w3.org/Graphics/SVG/1.1/DTD/svg11.dtd">
<svg version="1.1" id="Capa_1" xmlns="http://www.w3.org/2000/svg" xmlns:xlink="http://www.w3.org/1999/xlink" x="0px" y="0px"
	 viewBox="0 0 141.35 141.35" style="enable-background:new 0 0 141.35 141.35;" xml:space="preserve">
<g>
	<path style="fill:#ffffff;" d="M115.366,115.273H25.985C11.657,115.273,0,103.616,0,89.289c0-6.941,2.702-13.469,7.609-18.375
		c4.804-4.803,11.187-7.504,17.972-7.605c0.019-0.001,0.038-0.001,0.057-0.001c0.02,0,0.125,0,0.195-0.001
		c0.015-0.001,0.032-0.001,0.047-0.001c1.774-0.07,3.163-1.515,3.163-3.297c0-9.063,3.53-17.584,9.939-23.994
		c6.41-6.408,14.93-9.938,23.994-9.938c7.774,0,15.372,2.697,21.393,7.593c4.684,3.809,8.268,8.817,10.375,14.41
		c2.02-0.725,4.161-1.099,6.353-1.099c9.654,0,17.629,7.316,18.676,16.695c5.396,0.919,10.357,3.519,14.236,7.513
		c4.735,4.876,7.341,11.303,7.341,18.1C141.35,103.616,129.693,115.273,115.366,115.273z M25.667,70.824
		c-4.81,0.08-9.336,1.999-12.744,5.405c-3.486,3.486-5.405,8.125-5.405,13.06c0,10.183,8.284,18.467,18.467,18.467h89.381
		c10.183,0,18.467-8.284,18.467-18.467c0-4.83-1.853-9.398-5.216-12.863c-3.358-3.457-7.853-5.443-12.66-5.594
		c-1.032-0.033-2.004-0.488-2.691-1.259c-0.686-0.771-1.025-1.79-0.936-2.819c0.028-0.332,0.042-0.661,0.042-0.979
		c0-6.217-5.058-11.275-11.275-11.275c-2.342,0-4.586,0.711-6.49,2.055c-1.029,0.725-2.352,0.887-3.525,0.434
		c-1.173-0.456-2.042-1.467-2.313-2.696c-1.274-5.778-4.521-11.031-9.142-14.789c-4.685-3.81-10.598-5.908-16.65-5.908
		c-14.566,0-26.416,11.851-26.416,26.415c0,2.825-1.083,5.498-3.048,7.526c-1.957,2.021-4.582,3.186-7.388,3.283
		C26.037,70.821,25.909,70.824,25.667,70.824z"/>
</g>
<g>
</g>
<g>
</g>
<g>
</g>
<g>
</g>
<g>
</g>
<g>
</g>
<g>
</g>
<g>
</g>
<g>
</g>
<g>
</g>
<g>
</g>
<g>
</g>
<g>
</g>
<g>
</g>
<g>
</g>
</svg>
